# xmcd
#
# Track frame offsets:
#	150
#	17564
#	35844
#	55730
#	76173
#	92954
#	109388
#	125457
#	144005
#	164327
#	182578
#	204912
#
# Disc length: 3028 seconds
# Revision: 0
# Processed by: cddbd v1.5.2PL0 Copyright (c) Steve Scherf et al.
# Submitted via: dBpowerAMP V12.0
#
DISCID=970bd20c
DTITLE=Western Centuries - Songs from the Deluge
DYEAR=2018
DGENRE=Country
TTITLE0=Far From Home
TTITLE1=Earthly Justice
TTITLE2=Wild Birds
TTITLE3=Wild You Run
TTITLE4=Rocks and Flame
TTITLE5=FCC - Own Private Honky Tonk
TTITLE6=Cloud of Woes
TTITLE7=Borrow Time
TTITLE8=How Many More Miles to Babylon
TTITLE9=Time Does the Rest
TTITLE10=Three Swallows
TTITLE11=Warm Guns
EXTD=
EXTT0=
EXTT1=
EXTT2=
EXTT3=
EXTT4=
EXTT5=
EXTT6=
EXTT7=
EXTT8=
EXTT9=
EXTT10=
EXTT11=
PLAYORDER=
